<svg width="126" height="30" viewBox="0 0 126 30" fill="none" xmlns="http://www.w3.org/2000/svg">
<path d="M0 15C0 6.71573 6.71573 0 15 0H111C119.284 0 126 6.71573 126 15V15C126 23.2843 119.284 30 111 30H15C6.71573 30 0 23.2843 0 15V15Z" fill="#BEC2FF"/>
<path d="M43.44 7.68H48.28C49.4133 7.68 50.4333 7.85333 51.34 8.2C52.2467 8.54667 53.02 9.04 53.66 9.68C54.3 10.3067 54.7867 11.06 55.12 11.94C55.4667 12.82 55.64 13.7867 55.64 14.84C55.64 15.9067 55.4667 16.88 55.12 17.76C54.7867 18.64 54.3 19.3933 53.66 20.02C53.02 20.6467 52.2467 21.1333 51.34 21.48C50.4333 21.8267 49.4133 22 48.28 22H43.44V7.68ZM48.16 19.44C48.9467 19.44 49.64 19.3333 50.24 19.12C50.84 18.8933 51.34 18.58 51.74 18.18C52.14 17.78 52.44 17.3 52.64 16.74C52.84 16.1667 52.94 15.5333 52.94 14.84C52.94 14.1467 52.84 13.52 52.64 12.96C52.44 12.3867 52.14 11.9 51.74 11.5C51.34 11.1 50.84 10.7933 50.24 10.58C49.64 10.3533 48.9467 10.24 48.16 10.24H46.14V19.44H48.16ZM58.955 10.78C58.7283 10.78 58.5083 10.74 58.295 10.66C58.095 10.5667 57.915 10.4467 57.755 10.3C57.6083 10.14 57.4883 9.96 57.395 9.76C57.315 9.56 57.275 9.34 57.275 9.1C57.275 8.86 57.315 8.64 57.395 8.44C57.4883 8.24 57.6083 8.06667 57.755 7.92C57.915 7.76 58.095 7.64 58.295 7.56C58.5083 7.46667 58.7283 7.42 58.955 7.42C59.4217 7.42 59.8217 7.58667 60.155 7.92C60.4883 8.24 60.655 8.63333 60.655 9.1C60.655 9.56667 60.4883 9.96667 60.155 10.3C59.8217 10.62 59.4217 10.78 58.955 10.78ZM57.655 22V12.2H60.275V22H57.655ZM66.5508 22.32C65.9108 22.32 65.3374 22.24 64.8308 22.08C64.3374 21.92 63.9041 21.7133 63.5308 21.46C63.1708 21.1933 62.8641 20.8933 62.6108 20.56C62.3574 20.2133 62.1641 19.8667 62.0308 19.52L64.3708 18.52C64.5974 19.0267 64.8974 19.4067 65.2708 19.66C65.6574 19.9 66.0841 20.02 66.5508 20.02C67.0308 20.02 67.4108 19.9333 67.6908 19.76C67.9708 19.5867 68.1108 19.38 68.1108 19.14C68.1108 18.8733 67.9908 18.66 67.7508 18.5C67.5241 18.3267 67.1241 18.1733 66.5508 18.04L65.1708 17.74C64.8641 17.6733 64.5441 17.5667 64.2108 17.42C63.8908 17.2733 63.5974 17.0867 63.3308 16.86C63.0641 16.6333 62.8441 16.36 62.6708 16.04C62.4974 15.72 62.4108 15.3467 62.4108 14.92C62.4108 14.44 62.5108 14.0133 62.7108 13.64C62.9241 13.2667 63.2108 12.9533 63.5708 12.7C63.9308 12.4333 64.3508 12.2333 64.8308 12.1C65.3241 11.9533 65.8508 11.88 66.4108 11.88C67.3441 11.88 68.1774 12.0667 68.9108 12.44C69.6441 12.8 70.1841 13.38 70.5308 14.18L68.2708 15.1C68.0841 14.7133 67.8108 14.4333 67.4508 14.26C67.0908 14.0867 66.7308 14 66.3708 14C65.9974 14 65.6708 14.08 65.3908 14.24C65.1108 14.3867 64.9708 14.58 64.9708 14.82C64.9708 15.0467 65.0841 15.2267 65.3108 15.36C65.5508 15.4933 65.8708 15.6133 66.2708 15.72L67.7708 16.08C68.7708 16.32 69.5108 16.7067 69.9908 17.24C70.4841 17.76 70.7308 18.38 70.7308 19.1C70.7308 19.5267 70.6308 19.9333 70.4308 20.32C70.2308 20.7067 69.9441 21.0533 69.5708 21.36C69.2108 21.6533 68.7708 21.8867 68.2508 22.06C67.7441 22.2333 67.1774 22.32 66.5508 22.32ZM81.7364 19.5C81.3097 20.3267 80.7097 21.0067 79.9364 21.54C79.1764 22.06 78.2231 22.32 77.0764 22.32C76.3164 22.32 75.6164 22.1933 74.9764 21.94C74.3497 21.6733 73.8031 21.3067 73.3364 20.84C72.8831 20.3733 72.5231 19.8267 72.2564 19.2C72.0031 18.56 71.8764 17.86 71.8764 17.1C71.8764 16.34 72.0031 15.64 72.2564 15C72.5231 14.36 72.8831 13.8133 73.3364 13.36C73.8031 12.8933 74.3497 12.5333 74.9764 12.28C75.6164 12.0133 76.3164 11.88 77.0764 11.88C78.2097 11.88 79.1631 12.14 79.9364 12.66C80.7097 13.18 81.2764 13.8533 81.6364 14.68L79.2364 15.68C79.0097 15.2267 78.7164 14.8867 78.3564 14.66C78.0097 14.42 77.5697 14.3 77.0364 14.3C76.6897 14.3 76.3631 14.3667 76.0564 14.5C75.7497 14.6333 75.4764 14.82 75.2364 15.06C75.0097 15.3 74.8297 15.5933 74.6964 15.94C74.5631 16.2867 74.4964 16.6733 74.4964 17.1C74.4964 17.5267 74.5631 17.9133 74.6964 18.26C74.8297 18.6067 75.0097 18.9 75.2364 19.14C75.4764 19.38 75.7497 19.5667 76.0564 19.7C76.3631 19.8333 76.6897 19.9 77.0364 19.9C77.5831 19.9 78.0431 19.78 78.4164 19.54C78.8031 19.2867 79.1097 18.9267 79.3364 18.46L81.7364 19.5ZM87.8772 11.88C88.6372 11.88 89.3305 12.0133 89.9572 12.28C90.5972 12.5333 91.1439 12.8933 91.5972 13.36C92.0639 13.8133 92.4239 14.36 92.6772 15C92.9439 15.64 93.0772 16.34 93.0772 17.1C93.0772 17.86 92.9439 18.56 92.6772 19.2C92.4239 19.84 92.0639 20.3933 91.5972 20.86C91.1439 21.3133 90.5972 21.6733 89.9572 21.94C89.3305 22.1933 88.6372 22.32 87.8772 22.32C87.1172 22.32 86.4172 22.1933 85.7772 21.94C85.1505 21.6733 84.6039 21.3133 84.1372 20.86C83.6839 20.3933 83.3239 19.84 83.0572 19.2C82.8039 18.56 82.6772 17.86 82.6772 17.1C82.6772 16.34 82.8039 15.64 83.0572 15C83.3239 14.36 83.6839 13.8133 84.1372 13.36C84.6039 12.8933 85.1505 12.5333 85.7772 12.28C86.4172 12.0133 87.1172 11.88 87.8772 11.88ZM87.8772 19.9C88.2105 19.9 88.5305 19.84 88.8372 19.72C89.1572 19.5867 89.4372 19.4 89.6772 19.16C89.9172 18.92 90.1039 18.6267 90.2372 18.28C90.3839 17.9333 90.4572 17.54 90.4572 17.1C90.4572 16.66 90.3839 16.2667 90.2372 15.92C90.1039 15.5733 89.9172 15.28 89.6772 15.04C89.4372 14.8 89.1572 14.62 88.8372 14.5C88.5305 14.3667 88.2105 14.3 87.8772 14.3C87.5305 14.3 87.2039 14.3667 86.8972 14.5C86.5905 14.62 86.3172 14.8 86.0772 15.04C85.8372 15.28 85.6439 15.5733 85.4972 15.92C85.3639 16.2667 85.2972 16.66 85.2972 17.1C85.2972 17.54 85.3639 17.9333 85.4972 18.28C85.6439 18.6267 85.8372 18.92 86.0772 19.16C86.3172 19.4 86.5905 19.5867 86.8972 19.72C87.2039 19.84 87.5305 19.9 87.8772 19.9ZM94.5653 12.2H97.0253V13.56H97.1853C97.3053 13.32 97.4653 13.1 97.6653 12.9C97.8653 12.7 98.0853 12.5267 98.3253 12.38C98.5786 12.2333 98.8453 12.12 99.1253 12.04C99.4186 11.96 99.7053 11.92 99.9853 11.92C100.332 11.92 100.625 11.9533 100.865 12.02C101.119 12.0867 101.332 12.1733 101.505 12.28L100.805 14.66C100.645 14.58 100.465 14.52 100.265 14.48C100.079 14.4267 99.8453 14.4 99.5653 14.4C99.2053 14.4 98.8786 14.4733 98.5853 14.62C98.292 14.7533 98.0386 14.9467 97.8253 15.2C97.6253 15.4533 97.4653 15.7533 97.3453 16.1C97.2386 16.4333 97.1853 16.8 97.1853 17.2V22H94.5653V12.2ZM109.404 20.82H109.244C109.004 21.2333 108.631 21.5867 108.124 21.88C107.618 22.1733 106.991 22.32 106.244 22.32C105.618 22.32 105.018 22.1933 104.444 21.94C103.884 21.6733 103.384 21.3133 102.944 20.86C102.518 20.3933 102.178 19.84 101.924 19.2C101.671 18.56 101.544 17.86 101.544 17.1C101.544 16.34 101.671 15.64 101.924 15C102.178 14.36 102.518 13.8133 102.944 13.36C103.384 12.8933 103.884 12.5333 104.444 12.28C105.018 12.0133 105.618 11.88 106.244 11.88C106.991 11.88 107.618 12.0267 108.124 12.32C108.631 12.6133 109.004 12.9667 109.244 13.38H109.404L109.244 11.98V7.68H111.864V22H109.404V20.82ZM106.784 19.9C107.131 19.9 107.458 19.84 107.764 19.72C108.084 19.5867 108.364 19.4 108.604 19.16C108.844 18.92 109.038 18.6267 109.184 18.28C109.331 17.9333 109.404 17.54 109.404 17.1C109.404 16.66 109.331 16.2667 109.184 15.92C109.038 15.5733 108.844 15.28 108.604 15.04C108.364 14.8 108.084 14.62 107.764 14.5C107.458 14.3667 107.131 14.3 106.784 14.3C106.438 14.3 106.104 14.3667 105.784 14.5C105.478 14.6333 105.204 14.82 104.964 15.06C104.724 15.3 104.531 15.5933 104.384 15.94C104.238 16.2867 104.164 16.6733 104.164 17.1C104.164 17.5267 104.238 17.9133 104.384 18.26C104.531 18.6067 104.724 18.9 104.964 19.14C105.204 19.38 105.478 19.5667 105.784 19.7C106.104 19.8333 106.438 19.9 106.784 19.9Z" fill="#000DA4"/>
<path d="M32.9913 7.4921C31.4861 6.80147 29.8721 6.29265 28.1845 6.00122C28.1538 5.9956 28.1231 6.00965 28.1072 6.03777C27.8996 6.40697 27.6697 6.88862 27.5087 7.26719C25.6936 6.99545 23.8878 6.99545 22.1099 7.26719C21.9488 6.8802 21.7106 6.40697 21.502 6.03777C21.4862 6.01059 21.4555 5.99654 21.4248 6.00122C19.7381 6.29172 18.1241 6.80054 16.618 7.4921C16.6049 7.49772 16.5938 7.5071 16.5864 7.51928C13.5248 12.0931 12.6862 16.5545 13.0976 20.9606C13.0995 20.9822 13.1116 21.0028 13.1283 21.0159C15.1482 22.4993 17.1048 23.3998 19.0251 23.9967C19.0558 24.0061 19.0884 23.9949 19.108 23.9695C19.5622 23.3492 19.9671 22.6952 20.3143 22.0073C20.3348 21.967 20.3152 21.9192 20.2734 21.9033C19.6311 21.6597 19.0195 21.3626 18.4312 21.0253C18.3847 20.9981 18.381 20.9316 18.4238 20.8997C18.5476 20.8069 18.6714 20.7104 18.7896 20.613C18.811 20.5952 18.8408 20.5914 18.866 20.6026C22.7307 22.3672 26.9148 22.3672 30.734 20.6026C30.7592 20.5905 30.789 20.5942 30.8113 20.612C30.9295 20.7095 31.0533 20.8069 31.178 20.8997C31.2208 20.9316 31.2181 20.9981 31.1715 21.0253C30.5832 21.3692 29.9717 21.6597 29.3285 21.9024C29.2866 21.9183 29.268 21.967 29.2885 22.0073C29.6431 22.6942 30.048 23.3483 30.4939 23.9686C30.5125 23.9949 30.546 24.0061 30.5767 23.9967C32.5063 23.3998 34.4629 22.4993 36.4828 21.0159C36.5005 21.0028 36.5117 20.9831 36.5135 20.9616C37.0059 15.8676 35.6888 11.4428 33.022 7.52021C33.0155 7.5071 33.0043 7.49772 32.9913 7.4921ZM20.8914 18.2778C19.7279 18.2778 18.7691 17.2095 18.7691 15.8976C18.7691 14.5857 19.7093 13.5175 20.8914 13.5175C22.0829 13.5175 23.0323 14.5951 23.0137 15.8976C23.0137 17.2095 22.0736 18.2778 20.8914 18.2778ZM28.7383 18.2778C27.5748 18.2778 26.616 17.2095 26.616 15.8976C26.616 14.5857 27.5562 13.5175 28.7383 13.5175C29.9298 13.5175 30.8792 14.5951 30.8606 15.8976C30.8606 17.2095 29.9298 18.2778 28.7383 18.2778Z" fill="#000DA4"/>
</svg>
