<!--
  - Unitto is a calculator for Android
  - Copyright (c) 2024 Elshan Agaev
  -
  - This program is free software: you can redistribute it and/or modify
  - it under the terms of the GNU General Public License as published by
  - the Free Software Foundation, either version 3 of the License, or
  - (at your option) any later version.
  -
  - This program is distributed in the hope that it will be useful,
  - but WITHOUT ANY WARRANTY; without even the implied warranty of
  - MERCHANTABILITY or FITNESS FOR A PARTICULAR PURPOSE.  See the
  - GNU General Public License for more details.
  -
  - You should have received a copy of the GNU General Public License
  - along with this program.  If not, see <https://www.gnu.org/licenses/>.
  -->

<svg width="128" height="40" viewBox="0 0 128 40" fill="none" xmlns="http://www.w3.org/2000/svg">
<rect width="128" height="40" rx="20" fill="#005226"/>
<path fill-rule="evenodd" clip-rule="evenodd" d="M27.9731 11C23.0112 11 19 15.125 19 20.2281C19 24.3074 21.5701 27.7604 25.1356 28.9825C25.5814 29.0744 25.7446 28.7839 25.7446 28.5396C25.7446 28.3257 25.73 27.5924 25.73 26.8283C23.2338 27.3784 22.714 25.7283 22.714 25.7283C22.3129 24.6588 21.7185 24.3839 21.7185 24.3839C20.9016 23.8186 21.778 23.8186 21.778 23.8186C22.6843 23.8797 23.1598 24.7658 23.1598 24.7658C23.9619 26.1713 25.2544 25.7742 25.7744 25.5297C25.8486 24.9338 26.0865 24.5213 26.339 24.2922C24.3482 24.0783 22.2536 23.2838 22.2536 19.7392C22.2536 18.7308 22.6099 17.9058 23.1745 17.2642C23.0854 17.035 22.7734 16.0876 23.2638 14.8195C23.2638 14.8195 24.0214 14.575 25.7298 15.7668C26.4612 15.5648 27.2155 15.462 27.9731 15.4612C28.7308 15.4612 29.5031 15.5682 30.2163 15.7668C31.9249 14.575 32.6825 14.8195 32.6825 14.8195C33.1729 16.0876 32.8607 17.035 32.7716 17.2642C33.3511 17.9058 33.6927 18.7308 33.6927 19.7392C33.6927 23.2838 31.5981 24.0629 29.5924 24.2922C29.9193 24.5824 30.2015 25.1324 30.2015 26.0033C30.2015 27.2408 30.1868 28.234 30.1868 28.5394C30.1868 28.7839 30.3502 29.0744 30.7958 28.9827C34.3613 27.7602 36.9314 24.3074 36.9314 20.2281C36.9461 15.125 32.9202 11 27.9731 11Z" fill="#7EFBA0"/>
<path d="M54.736 26.128C53.872 26.128 53.0773 25.9893 52.352 25.712C51.6267 25.424 50.9973 25.024 50.464 24.512C49.9307 23.9893 49.5147 23.3813 49.216 22.688C48.9173 21.9947 48.768 21.232 48.768 20.4C48.768 19.568 48.9173 18.8053 49.216 18.112C49.5147 17.4187 49.9307 16.816 50.464 16.304C51.008 15.7813 51.6427 15.3813 52.368 15.104C53.0933 14.816 53.8933 14.672 54.768 14.672C55.6533 14.672 56.464 14.816 57.2 15.104C57.936 15.392 58.56 15.824 59.072 16.4L58.08 17.392C57.6213 16.944 57.12 16.6187 56.576 16.416C56.0427 16.2027 55.4613 16.096 54.832 16.096C54.192 16.096 53.5947 16.2027 53.04 16.416C52.496 16.6293 52.0213 16.928 51.616 17.312C51.2213 17.696 50.912 18.1547 50.688 18.688C50.4747 19.2107 50.368 19.7813 50.368 20.4C50.368 21.008 50.4747 21.5787 50.688 22.112C50.912 22.6347 51.2213 23.0933 51.616 23.488C52.0213 23.872 52.496 24.1707 53.04 24.384C53.584 24.5973 54.176 24.704 54.816 24.704C55.4133 24.704 55.984 24.6133 56.528 24.432C57.0827 24.24 57.5947 23.9253 58.064 23.488L58.976 24.704C58.4213 25.1733 57.7707 25.5307 57.024 25.776C56.288 26.0107 55.5253 26.128 54.736 26.128ZM57.44 24.496V20.336H58.976V24.704L57.44 24.496ZM61.3154 26V17.52H62.8514V26H61.3154ZM62.0834 15.888C61.7847 15.888 61.534 15.792 61.3314 15.6C61.1394 15.408 61.0434 15.1733 61.0434 14.896C61.0434 14.608 61.1394 14.368 61.3314 14.176C61.534 13.984 61.7847 13.888 62.0834 13.888C62.382 13.888 62.6274 13.984 62.8194 14.176C63.022 14.3573 63.1234 14.5867 63.1234 14.864C63.1234 15.152 63.0274 15.3973 62.8354 15.6C62.6434 15.792 62.3927 15.888 62.0834 15.888ZM68.1961 26.096C67.3428 26.096 66.6815 25.8667 66.2121 25.408C65.7428 24.9493 65.5081 24.2933 65.5081 23.44V15.664H67.0441V23.376C67.0441 23.8347 67.1561 24.1867 67.3801 24.432C67.6148 24.6773 67.9455 24.8 68.3721 24.8C68.8521 24.8 69.2521 24.6667 69.5721 24.4L70.0521 25.504C69.8175 25.7067 69.5348 25.856 69.2041 25.952C68.8841 26.048 68.5481 26.096 68.1961 26.096ZM64.0681 18.784V17.52H69.4761V18.784H64.0681ZM79.6651 14.8H81.2651V26H79.6651V14.8ZM73.2331 26H71.6331V14.8H73.2331V26ZM79.8091 21.008H73.0731V19.616H79.8091V21.008ZM87.4615 26.096C86.7362 26.096 86.0962 25.9627 85.5415 25.696C84.9975 25.4293 84.5708 25.024 84.2615 24.48C83.9628 23.9253 83.8135 23.232 83.8135 22.4V17.52H85.3495V22.224C85.3495 23.056 85.5468 23.68 85.9415 24.096C86.3468 24.512 86.9122 24.72 87.6375 24.72C88.1708 24.72 88.6348 24.6133 89.0295 24.4C89.4242 24.176 89.7282 23.856 89.9415 23.44C90.1548 23.0133 90.2615 22.5013 90.2615 21.904V17.52H91.7975V26H90.3415V23.712L90.5815 24.32C90.3042 24.8853 89.8882 25.3227 89.3335 25.632C88.7788 25.9413 88.1548 26.096 87.4615 26.096ZM98.7176 26.096C97.9923 26.096 97.3363 25.936 96.7496 25.616C96.1736 25.2853 95.715 24.8 95.3736 24.16C95.043 23.52 94.8776 22.72 94.8776 21.76C94.8776 20.8 95.0483 20 95.3896 19.36C95.7416 18.72 96.2056 18.24 96.7816 17.92C97.3683 17.6 98.0136 17.44 98.7176 17.44C99.5496 17.44 100.286 17.6213 100.926 17.984C101.566 18.3467 102.072 18.8533 102.446 19.504C102.819 20.144 103.006 20.896 103.006 21.76C103.006 22.624 102.819 23.3813 102.446 24.032C102.072 24.6827 101.566 25.1893 100.926 25.552C100.286 25.9147 99.5496 26.096 98.7176 26.096ZM94.2216 26V14.128H95.7576V19.776L95.5976 21.744L95.6936 23.712V26H94.2216ZM98.5896 24.752C99.1336 24.752 99.619 24.6293 100.046 24.384C100.483 24.1387 100.824 23.792 101.07 23.344C101.326 22.8853 101.454 22.3573 101.454 21.76C101.454 21.152 101.326 20.6293 101.07 20.192C100.824 19.744 100.483 19.3973 100.046 19.152C99.619 18.9067 99.1336 18.784 98.5896 18.784C98.0563 18.784 97.571 18.9067 97.1336 19.152C96.707 19.3973 96.3656 19.744 96.1096 20.192C95.8643 20.6293 95.7416 21.152 95.7416 21.76C95.7416 22.3573 95.8643 22.8853 96.1096 23.344C96.3656 23.792 96.707 24.1387 97.1336 24.384C97.571 24.6293 98.0563 24.752 98.5896 24.752Z" fill="#7EFBA0"/>
</svg>
