<!--
  - Unitto is a calculator for Android
  - Copyright (c) 2024 Elshan Agaev
  -
  - This program is free software: you can redistribute it and/or modify
  - it under the terms of the GNU General Public License as published by
  - the Free Software Foundation, either version 3 of the License, or
  - (at your option) any later version.
  -
  - This program is distributed in the hope that it will be useful,
  - but WITHOUT ANY WARRANTY; without even the implied warranty of
  - MERCHANTABILITY or FITNESS FOR A PARTICULAR PURPOSE.  See the
  - GNU General Public License for more details.
  -
  - You should have received a copy of the GNU General Public License
  - along with this program.  If not, see <https://www.gnu.org/licenses/>.
  -->

<svg width="131" height="40" viewBox="0 0 131 40" fill="none" xmlns="http://www.w3.org/2000/svg">
<rect width="131" height="40" rx="20" fill="#005226"/>
<path fill-rule="evenodd" clip-rule="evenodd" d="M19.8323 11.1428C19.6419 10.9524 19.3332 10.9524 19.1428 11.1428C18.9524 11.3332 18.9524 11.6419 19.1428 11.8323L20.8511 13.5406C20.7849 13.6966 20.7483 13.8682 20.7483 14.0484V16.6487C20.7483 17.3667 21.3303 17.9488 22.0484 17.9488H34.3997C35.1178 17.9488 35.6999 17.3667 35.6999 16.6487V14.0484C35.6999 13.8688 35.6634 13.6977 35.5976 13.5421L37.3075 11.8323C37.4979 11.6419 37.4979 11.3332 37.3075 11.1428C37.1171 10.9524 36.8083 10.9524 36.6179 11.1428L34.909 12.8518C34.7526 12.7851 34.5805 12.7483 34.3997 12.7483H22.0484C21.8682 12.7483 21.6966 12.7849 21.5406 12.8511L19.8323 11.1428ZM25.6238 15.3485C25.6238 16.0666 25.0417 16.6487 24.3236 16.6487C23.6056 16.6487 23.0235 16.0666 23.0235 15.3485C23.0235 14.6305 23.6056 14.0484 24.3236 14.0484C25.0417 14.0484 25.6238 14.6305 25.6238 15.3485ZM33.4246 15.3485C33.4246 16.0666 32.8425 16.6487 32.1245 16.6487C31.4064 16.6487 30.8243 16.0666 30.8243 15.3485C30.8243 14.6305 31.4064 14.0484 32.1245 14.0484C32.8425 14.0484 33.4246 14.6305 33.4246 15.3485Z" fill="#7EFBA0"/>
<path fill-rule="evenodd" clip-rule="evenodd" d="M31.4755 23.7994C31.4755 25.5946 30.0202 27.0498 28.2251 27.0498C26.43 27.0498 24.9748 25.5946 24.9748 23.7994C24.9748 22.0043 26.43 20.5491 28.2251 20.5491C30.0202 20.5491 31.4755 22.0043 31.4755 23.7994ZM28.2251 26.0747C29.4817 26.0747 30.5004 25.056 30.5004 23.7994C30.5004 22.5429 29.4817 21.5242 28.2251 21.5242C27.1944 21.5242 26.3238 22.2095 26.0441 23.1494H27.0989C27.3237 22.7608 27.7439 22.4993 28.2251 22.4993C28.9432 22.4993 29.5253 23.0814 29.5253 23.7994C29.5253 24.5175 28.9432 25.0996 28.2251 25.0996C27.7439 25.0996 27.3237 24.8381 27.0989 24.4495H26.0441C26.3238 25.3893 27.1944 26.0747 28.2251 26.0747Z" fill="#7EFBA0"/>
<path fill-rule="evenodd" clip-rule="evenodd" d="M20.7483 27.6999V19.899C20.7483 19.181 21.3303 18.5989 22.0484 18.5989H34.3997C35.1178 18.5989 35.6999 19.181 35.6999 19.899V27.6999C35.6999 28.4179 35.1178 29 34.3997 29H22.0484C21.3303 29 20.7483 28.4179 20.7483 27.6999ZM32.1255 23.7994C32.1255 25.9536 30.3793 27.6999 28.2251 27.6999C26.071 27.6999 24.3247 25.9536 24.3247 23.7994C24.3247 21.6453 26.071 19.899 28.2251 19.899C30.3793 19.899 32.1255 21.6453 32.1255 23.7994Z" fill="#7EFBA0"/>
<path d="M51.12 20.096H56.896V21.472H51.12V20.096ZM51.28 26H49.68V14.8H57.584V16.192H51.28V26ZM58.5683 22.272V20.944H62.8723V22.272H58.5683ZM64.9613 26V14.8H69.6813C70.8759 14.8 71.9266 15.0347 72.8333 15.504C73.7506 15.9733 74.4599 16.6293 74.9613 17.472C75.4733 18.3147 75.7293 19.2907 75.7293 20.4C75.7293 21.5093 75.4733 22.4853 74.9613 23.328C74.4599 24.1707 73.7506 24.8267 72.8333 25.296C71.9266 25.7653 70.8759 26 69.6813 26H64.9613ZM66.5613 24.608H69.5853C70.5133 24.608 71.3133 24.432 71.9853 24.08C72.6679 23.728 73.1959 23.2373 73.5693 22.608C73.9426 21.968 74.1293 21.232 74.1293 20.4C74.1293 19.5573 73.9426 18.8213 73.5693 18.192C73.1959 17.5627 72.6679 17.072 71.9853 16.72C71.3133 16.368 70.5133 16.192 69.5853 16.192H66.5613V24.608ZM77.456 26V17.52H78.928V19.824L78.784 19.248C79.0187 18.6613 79.4133 18.2133 79.968 17.904C80.5227 17.5947 81.2053 17.44 82.016 17.44V18.928C81.952 18.9173 81.888 18.912 81.824 18.912C81.7707 18.912 81.7173 18.912 81.664 18.912C80.8427 18.912 80.192 19.1573 79.712 19.648C79.232 20.1387 78.992 20.848 78.992 21.776V26H77.456ZM86.963 26.096C86.1097 26.096 85.3523 25.9093 84.691 25.536C84.0297 25.1627 83.507 24.6507 83.123 24C82.739 23.3387 82.547 22.592 82.547 21.76C82.547 20.9173 82.739 20.1707 83.123 19.52C83.507 18.8693 84.0297 18.3627 84.691 18C85.3523 17.6267 86.1097 17.44 86.963 17.44C87.8057 17.44 88.5577 17.6267 89.219 18C89.891 18.3627 90.4137 18.8693 90.787 19.52C91.171 20.16 91.363 20.9067 91.363 21.76C91.363 22.6027 91.171 23.3493 90.787 24C90.4137 24.6507 89.891 25.1627 89.219 25.536C88.5577 25.9093 87.8057 26.096 86.963 26.096ZM86.963 24.752C87.507 24.752 87.9923 24.6293 88.419 24.384C88.8563 24.1387 89.1977 23.792 89.443 23.344C89.6883 22.8853 89.811 22.3573 89.811 21.76C89.811 21.152 89.6883 20.6293 89.443 20.192C89.1977 19.744 88.8563 19.3973 88.419 19.152C87.9923 18.9067 87.507 18.784 86.963 18.784C86.419 18.784 85.9337 18.9067 85.507 19.152C85.0803 19.3973 84.739 19.744 84.483 20.192C84.227 20.6293 84.099 21.152 84.099 21.76C84.099 22.3573 84.227 22.8853 84.483 23.344C84.739 23.792 85.0803 24.1387 85.507 24.384C85.9337 24.6293 86.419 24.752 86.963 24.752ZM92.9873 26V17.52H94.5233V26H92.9873ZM93.7553 15.888C93.4566 15.888 93.2059 15.792 93.0033 15.6C92.8113 15.408 92.7153 15.1733 92.7153 14.896C92.7153 14.608 92.8113 14.368 93.0033 14.176C93.2059 13.984 93.4566 13.888 93.7553 13.888C94.0539 13.888 94.2993 13.984 94.4913 14.176C94.6939 14.3573 94.7953 14.5867 94.7953 14.864C94.7953 15.152 94.6993 15.3973 94.5073 15.6C94.3153 15.792 94.0646 15.888 93.7553 15.888ZM100.46 26.096C99.6387 26.096 98.9027 25.9147 98.252 25.552C97.612 25.1893 97.1053 24.6827 96.732 24.032C96.3587 23.3813 96.172 22.624 96.172 21.76C96.172 20.896 96.3587 20.144 96.732 19.504C97.1053 18.8533 97.612 18.3467 98.252 17.984C98.9027 17.6213 99.6387 17.44 100.46 17.44C101.175 17.44 101.82 17.6 102.396 17.92C102.972 18.24 103.431 18.72 103.772 19.36C104.124 20 104.3 20.8 104.3 21.76C104.3 22.72 104.129 23.52 103.788 24.16C103.457 24.8 103.004 25.2853 102.428 25.616C101.852 25.936 101.196 26.096 100.46 26.096ZM100.588 24.752C101.121 24.752 101.601 24.6293 102.028 24.384C102.465 24.1387 102.807 23.792 103.052 23.344C103.308 22.8853 103.436 22.3573 103.436 21.76C103.436 21.152 103.308 20.6293 103.052 20.192C102.807 19.744 102.465 19.3973 102.028 19.152C101.601 18.9067 101.121 18.784 100.588 18.784C100.044 18.784 99.5587 18.9067 99.132 19.152C98.7053 19.3973 98.364 19.744 98.108 20.192C97.852 20.6293 97.724 21.152 97.724 21.76C97.724 22.3573 97.852 22.8853 98.108 23.344C98.364 23.792 98.7053 24.1387 99.132 24.384C99.5587 24.6293 100.044 24.752 100.588 24.752ZM103.484 26V23.712L103.58 21.744L103.42 19.776V14.128H104.956V26H103.484Z" fill="#7EFBA0"/>
</svg>
