<svg xmlns="http://www.w3.org/2000/svg" width="600" height="320" style="background:#00000000">
<style>text { font-family: sans-serif; font-size: 14px; fill: #ffffff; }</style>
<text x="140" y="25" text-anchor="end"><![CDATA[Arabic]]></text>
<rect x="150" y="11" width="300" height="14" fill="#2C2F33" rx="8" ry="8" />
<rect x="150" y="11" width="282" height="14" fill="#a3e39d" rx="8" ry="8" />
<text x="460" y="25" text-anchor="start">94%</text>
<text x="140" y="55" text-anchor="end"><![CDATA[German]]></text>
<rect x="150" y="41" width="300" height="14" fill="#2C2F33" rx="8" ry="8" />
<rect x="150" y="41" width="249" height="14" fill="#aedd9f" rx="8" ry="8" />
<text x="460" y="55" text-anchor="start">83%</text>
<text x="140" y="85" text-anchor="end"><![CDATA[Persian]]></text>
<rect x="150" y="71" width="300" height="14" fill="#2C2F33" rx="8" ry="8" />
<rect x="150" y="71" width="297" height="14" fill="#9ee59d" rx="8" ry="8" />
<text x="460" y="85" text-anchor="start">99%</text>
<text x="140" y="115" text-anchor="end"><![CDATA[French]]></text>
<rect x="150" y="101" width="300" height="14" fill="#2C2F33" rx="8" ry="8" />
<rect x="150" y="101" width="210" height="14" fill="#bbd7a1" rx="8" ry="8" />
<text x="460" y="115" text-anchor="start">70%</text>
<text x="140" y="145" text-anchor="end"><![CDATA[Hindi]]></text>
<rect x="150" y="131" width="300" height="14" fill="#2C2F33" rx="8" ry="8" />
<rect x="150" y="131" width="294" height="14" fill="#9fe59d" rx="8" ry="8" />
<text x="460" y="145" text-anchor="start">98%</text>
<text x="140" y="175" text-anchor="end"><![CDATA[Japanese]]></text>
<rect x="150" y="161" width="300" height="14" fill="#2C2F33" rx="8" ry="8" />
<rect x="150" y="161" width="291" height="14" fill="#a0e49d" rx="8" ry="8" />
<text x="460" y="175" text-anchor="start">97%</text>
<text x="140" y="205" text-anchor="end"><![CDATA[Portuguese]]></text>
<rect x="150" y="191" width="300" height="14" fill="#2C2F33" rx="8" ry="8" />
<rect x="150" y="191" width="273" height="14" fill="#a6e19e" rx="8" ry="8" />
<text x="460" y="205" text-anchor="start">91%</text>
<text x="140" y="235" text-anchor="end"><![CDATA[Russian]]></text>
<rect x="150" y="221" width="300" height="14" fill="#2C2F33" rx="8" ry="8" />
<rect x="150" y="221" width="297" height="14" fill="#9ee59d" rx="8" ry="8" />
<text x="460" y="235" text-anchor="start">99%</text>
<text x="140" y="265" text-anchor="end"><![CDATA[Turkish]]></text>
<rect x="150" y="251" width="300" height="14" fill="#2C2F33" rx="8" ry="8" />
<rect x="150" y="251" width="249" height="14" fill="#aedd9f" rx="8" ry="8" />
<text x="460" y="265" text-anchor="start">83%</text>
<text x="140" y="295" text-anchor="end"><![CDATA[Chinese Simplified]]></text>
<rect x="150" y="281" width="300" height="14" fill="#2C2F33" rx="8" ry="8" />
<rect x="150" y="281" width="288" height="14" fill="#a1e49d" rx="8" ry="8" />
<text x="460" y="295" text-anchor="start">96%</text>
</svg>