<svg xmlns="http://www.w3.org/2000/svg" width="600" height="440" style="background:#00000000">
<style>text { font-family: sans-serif; font-size: 14px; fill: #ffffff; }</style>
<text x="140" y="25" text-anchor="end"><![CDATA[Arabic]]></text>
<rect x="150" y="11" width="300" height="14" fill="#2C2F33" rx="8" ry="8" />
<rect x="150" y="11" width="297" height="14" fill="#9ee59d" rx="8" ry="8" />
<text x="460" y="25" text-anchor="start">99%</text>
<text x="140" y="55" text-anchor="end"><![CDATA[German]]></text>
<rect x="150" y="41" width="300" height="14" fill="#2C2F33" rx="8" ry="8" />
<rect x="150" y="41" width="261" height="14" fill="#aadf9e" rx="8" ry="8" />
<text x="460" y="55" text-anchor="start">87%</text>
<text x="140" y="85" text-anchor="end"><![CDATA[Spanish]]></text>
<rect x="150" y="71" width="300" height="14" fill="#2C2F33" rx="8" ry="8" />
<rect x="150" y="71" width="300" height="14" fill="#9ee69d" rx="8" ry="8" />
<text x="460" y="85" text-anchor="start">100%</text>
<text x="140" y="115" text-anchor="end"><![CDATA[Persian]]></text>
<rect x="150" y="101" width="300" height="14" fill="#2C2F33" rx="8" ry="8" />
<rect x="150" y="101" width="204" height="14" fill="#bdd6a1" rx="8" ry="8" />
<text x="460" y="115" text-anchor="start">68%</text>
<text x="140" y="145" text-anchor="end"><![CDATA[French]]></text>
<rect x="150" y="131" width="300" height="14" fill="#2C2F33" rx="8" ry="8" />
<rect x="150" y="131" width="237" height="14" fill="#b2db9f" rx="8" ry="8" />
<text x="460" y="145" text-anchor="start">79%</text>
<text x="140" y="175" text-anchor="end"><![CDATA[Hindi]]></text>
<rect x="150" y="161" width="300" height="14" fill="#2C2F33" rx="8" ry="8" />
<rect x="150" y="161" width="201" height="14" fill="#bed5a1" rx="8" ry="8" />
<text x="460" y="175" text-anchor="start">67%</text>
<text x="140" y="205" text-anchor="end"><![CDATA[Italian]]></text>
<rect x="150" y="191" width="300" height="14" fill="#2C2F33" rx="8" ry="8" />
<rect x="150" y="191" width="300" height="14" fill="#9ee69d" rx="8" ry="8" />
<text x="460" y="205" text-anchor="start">100%</text>
<text x="140" y="235" text-anchor="end"><![CDATA[Japanese]]></text>
<rect x="150" y="221" width="300" height="14" fill="#2C2F33" rx="8" ry="8" />
<rect x="150" y="221" width="288" height="14" fill="#a1e49d" rx="8" ry="8" />
<text x="460" y="235" text-anchor="start">96%</text>
<text x="140" y="265" text-anchor="end"><![CDATA[Portuguese, Brazilian]]></text>
<rect x="150" y="251" width="300" height="14" fill="#2C2F33" rx="8" ry="8" />
<rect x="150" y="251" width="297" height="14" fill="#9ee59d" rx="8" ry="8" />
<text x="460" y="265" text-anchor="start">99%</text>
<text x="140" y="295" text-anchor="end"><![CDATA[Portuguese]]></text>
<rect x="150" y="281" width="300" height="14" fill="#2C2F33" rx="8" ry="8" />
<rect x="150" y="281" width="297" height="14" fill="#9ee59d" rx="8" ry="8" />
<text x="460" y="295" text-anchor="start">99%</text>
<text x="140" y="325" text-anchor="end"><![CDATA[Russian]]></text>
<rect x="150" y="311" width="300" height="14" fill="#2C2F33" rx="8" ry="8" />
<rect x="150" y="311" width="300" height="14" fill="#9ee69d" rx="8" ry="8" />
<text x="460" y="325" text-anchor="start">100%</text>
<text x="140" y="355" text-anchor="end"><![CDATA[Turkish]]></text>
<rect x="150" y="341" width="300" height="14" fill="#2C2F33" rx="8" ry="8" />
<rect x="150" y="341" width="206" height="14" fill="#bcd6a1" rx="8" ry="8" />
<text x="460" y="355" text-anchor="start">69%</text>
<text x="140" y="385" text-anchor="end"><![CDATA[Ukrainian]]></text>
<rect x="150" y="371" width="300" height="14" fill="#2C2F33" rx="8" ry="8" />
<rect x="150" y="371" width="300" height="14" fill="#9ee69d" rx="8" ry="8" />
<text x="460" y="385" text-anchor="start">100%</text>
<text x="140" y="415" text-anchor="end"><![CDATA[Chinese Simplified]]></text>
<rect x="150" y="401" width="300" height="14" fill="#2C2F33" rx="8" ry="8" />
<rect x="150" y="401" width="297" height="14" fill="#9ee59d" rx="8" ry="8" />
<text x="460" y="415" text-anchor="start">99%</text>
</svg>