<svg xmlns="http://www.w3.org/2000/svg" width="600" height="410" style="background:#00000000">
<style>text { font-family: sans-serif; font-size: 14px; fill: #ffffff; }</style>
<text x="140" y="25" text-anchor="end"><![CDATA[Arabic]]></text>
<rect x="150" y="11" width="300" height="14" fill="#2C2F33" rx="8" ry="8" />
<rect x="150" y="11" width="297" height="14" fill="#9ee59d" rx="8" ry="8" />
<text x="460" y="25" text-anchor="start">99%</text>
<text x="140" y="55" text-anchor="end"><![CDATA[German]]></text>
<rect x="150" y="41" width="300" height="14" fill="#2C2F33" rx="8" ry="8" />
<rect x="150" y="41" width="258" height="14" fill="#abdf9e" rx="8" ry="8" />
<text x="460" y="55" text-anchor="start">86%</text>
<text x="140" y="85" text-anchor="end"><![CDATA[Spanish]]></text>
<rect x="150" y="71" width="300" height="14" fill="#2C2F33" rx="8" ry="8" />
<rect x="150" y="71" width="300" height="14" fill="#9ee69d" rx="8" ry="8" />
<text x="460" y="85" text-anchor="start">100%</text>
<text x="140" y="115" text-anchor="end"><![CDATA[Persian]]></text>
<rect x="150" y="101" width="300" height="14" fill="#2C2F33" rx="8" ry="8" />
<rect x="150" y="101" width="219" height="14" fill="#b8d8a0" rx="8" ry="8" />
<text x="460" y="115" text-anchor="start">73%</text>
<text x="140" y="145" text-anchor="end"><![CDATA[French]]></text>
<rect x="150" y="131" width="300" height="14" fill="#2C2F33" rx="8" ry="8" />
<rect x="150" y="131" width="231" height="14" fill="#b4daa0" rx="8" ry="8" />
<text x="460" y="145" text-anchor="start">77%</text>
<text x="140" y="175" text-anchor="end"><![CDATA[Hindi]]></text>
<rect x="150" y="161" width="300" height="14" fill="#2C2F33" rx="8" ry="8" />
<rect x="150" y="161" width="216" height="14" fill="#b9d8a0" rx="8" ry="8" />
<text x="460" y="175" text-anchor="start">72%</text>
<text x="140" y="205" text-anchor="end"><![CDATA[Japanese]]></text>
<rect x="150" y="191" width="300" height="14" fill="#2C2F33" rx="8" ry="8" />
<rect x="150" y="191" width="288" height="14" fill="#a1e49d" rx="8" ry="8" />
<text x="460" y="205" text-anchor="start">96%</text>
<text x="140" y="235" text-anchor="end"><![CDATA[Portuguese, Brazilian]]></text>
<rect x="150" y="221" width="300" height="14" fill="#2C2F33" rx="8" ry="8" />
<rect x="150" y="221" width="300" height="14" fill="#9ee69d" rx="8" ry="8" />
<text x="460" y="235" text-anchor="start">100%</text>
<text x="140" y="265" text-anchor="end"><![CDATA[Portuguese]]></text>
<rect x="150" y="251" width="300" height="14" fill="#2C2F33" rx="8" ry="8" />
<rect x="150" y="251" width="297" height="14" fill="#9ee59d" rx="8" ry="8" />
<text x="460" y="265" text-anchor="start">99%</text>
<text x="140" y="295" text-anchor="end"><![CDATA[Russian]]></text>
<rect x="150" y="281" width="300" height="14" fill="#2C2F33" rx="8" ry="8" />
<rect x="150" y="281" width="300" height="14" fill="#9ee69d" rx="8" ry="8" />
<text x="460" y="295" text-anchor="start">100%</text>
<text x="140" y="325" text-anchor="end"><![CDATA[Turkish]]></text>
<rect x="150" y="311" width="300" height="14" fill="#2C2F33" rx="8" ry="8" />
<rect x="150" y="311" width="222" height="14" fill="#b7d9a0" rx="8" ry="8" />
<text x="460" y="325" text-anchor="start">74%</text>
<text x="140" y="355" text-anchor="end"><![CDATA[Ukrainian]]></text>
<rect x="150" y="341" width="300" height="14" fill="#2C2F33" rx="8" ry="8" />
<rect x="150" y="341" width="300" height="14" fill="#9ee69d" rx="8" ry="8" />
<text x="460" y="355" text-anchor="start">100%</text>
<text x="140" y="385" text-anchor="end"><![CDATA[Chinese Simplified]]></text>
<rect x="150" y="371" width="300" height="14" fill="#2C2F33" rx="8" ry="8" />
<rect x="150" y="371" width="297" height="14" fill="#9ee59d" rx="8" ry="8" />
<text x="460" y="385" text-anchor="start">99%</text>
</svg>